HIERARCHY
ROOT Hips
{
	OFFSET 0.000000 121.760803 0.000000
	CHANNELS 6 Xposition Yposition Zposition Xrotation Yrotation Zrotation 
	JOINT Spine
	{
		OFFSET 0.072000 7.257294 -0.789700
		CHANNELS 3 Xrotation Yrotation Zrotation
		JOINT Spine1
		{
			OFFSET 0.000000 12.508769 -0.658067
			CHANNELS 3 Xrotation Yrotation Zrotation
			JOINT Spine1_split
			{
				OFFSET 0.000000 12.508769 -0.658067
				CHANNELS 3 Xrotation Yrotation Zrotation
				JOINT Spine2
				{
					OFFSET 0.000000 12.508769 -0.658067
					CHANNELS 3 Xrotation Yrotation Zrotation
					JOINT Neck
					{
						OFFSET 0.000000 14.033295 7.520400
						CHANNELS 3 Xrotation Yrotation Zrotation
						JOINT Head
						{
							OFFSET 0.000000 8.198502 5.703100
							CHANNELS 3 Xrotation Yrotation Zrotation
							JOINT HeadTop_End
							{
								OFFSET 0.000000 17.760803 13.332701
								CHANNELS 3 Xrotation Yrotation Zrotation
								End Site
								{
									OFFSET 0.000000 0.000000 0.000000
								}
							}
						}
					}
					JOINT LeftShoulder
					{
						OFFSET 6.292450 5.785301 -0.669000
						CHANNELS 3 Xrotation Yrotation Zrotation
						JOINT LeftShoulder_split
						{
							OFFSET 6.292450 5.785301 -0.669000
							CHANNELS 3 Xrotation Yrotation Zrotation
							JOINT LeftArm
							{
								OFFSET 13.907140 -6.093903 1.965100
								CHANNELS 3 Xrotation Yrotation Zrotation
								JOINT LeftForeArm
								{
									OFFSET 34.140198 0.000000 0.000000
									CHANNELS 3 Xrotation Yrotation Zrotation
									JOINT LeftHand
									{
										OFFSET 40.960209 0.000000 0.000000
										CHANNELS 3 Xrotation Yrotation Zrotation
										JOINT LeftHandThumb1
										{
											OFFSET 10.006996 -7.170425 9.573125
											CHANNELS 3 Xrotation Yrotation Zrotation
											JOINT LeftHandThumb2
											{
												OFFSET 1.835007 -1.059448 1.059443
												CHANNELS 3 Xrotation Yrotation Zrotation
												JOINT LeftHandThumb3
												{
													OFFSET 2.112267 -1.219513 1.219518
													CHANNELS 3 Xrotation Yrotation Zrotation
													JOINT LeftHandThumb4
													{
														OFFSET 4.843811 -2.796570 2.796576
														CHANNELS 3 Xrotation Yrotation Zrotation
														End Site
														{
															OFFSET 0.000000 0.000000 0.000000
														}
													}
												}
											}
										}
										JOINT LeftHandIndex1
										{
											OFFSET 18.389847 -0.922348 4.596882
											CHANNELS 3 Xrotation Yrotation Zrotation
											JOINT LeftHandIndex2
											{
												OFFSET 4.711273 0.000000 0.000000
												CHANNELS 3 Xrotation Yrotation Zrotation
												JOINT LeftHandIndex3
												{
													OFFSET 2.886131 0.000000 0.000000
													CHANNELS 3 Xrotation Yrotation Zrotation
													JOINT LeftHandIndex4
													{
														OFFSET 6.145912 0.000000 0.000000
														CHANNELS 3 Xrotation Yrotation Zrotation
														End Site
														{
															OFFSET 0.000000 0.000000 0.000000
														}
													}
												}
											}
										}
										JOINT LeftHandMiddle1
										{
											OFFSET 18.013008 0.000000 0.000000
											CHANNELS 3 Xrotation Yrotation Zrotation
											JOINT LeftHandMiddle2
											{
												OFFSET 4.946693 0.000000 0.000000
												CHANNELS 3 Xrotation Yrotation Zrotation
												JOINT LeftHandMiddle3
												{
													OFFSET 3.342232 0.000000 0.000000
													CHANNELS 3 Xrotation Yrotation Zrotation
													JOINT LeftHandMiddle4
													{
														OFFSET 4.461754 0.000000 0.000000
														CHANNELS 3 Xrotation Yrotation Zrotation
														End Site
														{
															OFFSET 0.000000 0.000000 0.000000
														}
													}
												}
											}
										}
										JOINT LeftHandRing1
										{
											OFFSET 15.849892 -0.102921 -4.126150
											CHANNELS 3 Xrotation Yrotation Zrotation
											JOINT LeftHandRing2
											{
												OFFSET 3.527054 0.000000 0.000000
												CHANNELS 3 Xrotation Yrotation Zrotation
												JOINT LeftHandRing3
												{
													OFFSET 2.961098 0.000000 0.000000
													CHANNELS 3 Xrotation Yrotation Zrotation
													JOINT LeftHandRing4
													{
														OFFSET 4.927200 0.000000 0.000000
														CHANNELS 3 Xrotation Yrotation Zrotation
														End Site
														{
															OFFSET 0.000000 0.000000 0.000000
														}
													}
												}
											}
										}
										JOINT LeftHandPinky1
										{
											OFFSET 12.791824 -0.832031 -6.799156
											CHANNELS 3 Xrotation Yrotation Zrotation
											JOINT LeftHandPinky2
											{
												OFFSET 3.327133 0.000000 0.000000
												CHANNELS 3 Xrotation Yrotation Zrotation
												JOINT LeftHandPinky3
												{
													OFFSET 3.014900 0.000000 0.000000
													CHANNELS 3 Xrotation Yrotation Zrotation
													JOINT LeftHandPinky4
													{
														OFFSET 5.847786 0.000000 0.000000
														CHANNELS 3 Xrotation Yrotation Zrotation
														End Site
														{
															OFFSET 0.000000 0.000000 0.000000
														}
													}
												}
											}
										}
									}
								}
							}
						}
					}
					JOINT RightShoulder
					{
						OFFSET -6.292450 5.785301 -0.669000
						CHANNELS 3 Xrotation Yrotation Zrotation
						JOINT RightShoulder_split
						{
							OFFSET -6.292450 5.785301 -0.669000
							CHANNELS 3 Xrotation Yrotation Zrotation
							JOINT RightArm
							{
								OFFSET -13.907140 -6.093903 1.965100
								CHANNELS 3 Xrotation Yrotation Zrotation
								JOINT RightForeArm
								{
									OFFSET -34.140198 0.000000 0.000000
									CHANNELS 3 Xrotation Yrotation Zrotation
									JOINT RightHand
									{
										OFFSET -40.960209 0.000000 0.000000
										CHANNELS 3 Xrotation Yrotation Zrotation
										JOINT RightHandThumb1
										{
											OFFSET -10.007050 -7.170456 9.573117
											CHANNELS 3 Xrotation Yrotation Zrotation
											JOINT RightHandThumb2
											{
												OFFSET -1.835007 -1.059448 1.059443
												CHANNELS 3 Xrotation Yrotation Zrotation
												JOINT RightHandThumb3
												{
													OFFSET -2.112267 -1.219513 1.219518
													CHANNELS 3 Xrotation Yrotation Zrotation
													JOINT RightHandThumb4
													{
														OFFSET -4.843834 -2.796585 2.796590
														CHANNELS 3 Xrotation Yrotation Zrotation
														End Site
														{
															OFFSET 0.000000 0.000000 0.000000
														}
													}
												}
											}
										}
										JOINT RightHandIndex1
										{
											OFFSET -18.389870 -0.922424 4.596786
											CHANNELS 3 Xrotation Yrotation Zrotation
											JOINT RightHandIndex2
											{
												OFFSET -4.711273 0.000000 0.000000
												CHANNELS 3 Xrotation Yrotation Zrotation
												JOINT RightHandIndex3
												{
													OFFSET -2.886131 0.000000 0.000000
													CHANNELS 3 Xrotation Yrotation Zrotation
													JOINT RightHandIndex4
													{
														OFFSET -6.145920 0.000000 0.000000
														CHANNELS 3 Xrotation Yrotation Zrotation
														End Site
														{
															OFFSET 0.000000 0.000000 0.000000
														}
													}
												}
											}
										}
										JOINT RightHandMiddle1
										{
											OFFSET -18.013008 0.000000 0.000000
											CHANNELS 3 Xrotation Yrotation Zrotation
											JOINT RightHandMiddle2
											{
												OFFSET -4.946693 0.000000 0.000000
												CHANNELS 3 Xrotation Yrotation Zrotation
												JOINT RightHandMiddle3
												{
													OFFSET -3.342232 0.000000 0.000000
													CHANNELS 3 Xrotation Yrotation Zrotation
													JOINT RightHandMiddle4
													{
														OFFSET -4.461754 0.000000 0.000000
														CHANNELS 3 Xrotation Yrotation Zrotation
														End Site
														{
															OFFSET 0.000000 0.000000 0.000000
														}
													}
												}
											}
										}
										JOINT RightHandRing1
										{
											OFFSET -15.849876 -0.102936 -4.126237
											CHANNELS 3 Xrotation Yrotation Zrotation
											JOINT RightHandRing2
											{
												OFFSET -3.527054 0.000000 0.000000
												CHANNELS 3 Xrotation Yrotation Zrotation
												JOINT RightHandRing3
												{
													OFFSET -2.961098 0.000000 0.000000
													CHANNELS 3 Xrotation Yrotation Zrotation
													JOINT RightHandRing4
													{
														OFFSET -4.927200 0.000000 0.000000
														CHANNELS 3 Xrotation Yrotation Zrotation
														End Site
														{
															OFFSET 0.000000 0.000000 0.000000
														}
													}
												}
											}
										}
										JOINT RightHandPinky1
										{
											OFFSET -12.791786 -0.832077 -6.799222
											CHANNELS 3 Xrotation Yrotation Zrotation
											JOINT RightHandPinky2
											{
												OFFSET -3.327133 0.000000 0.000000
												CHANNELS 3 Xrotation Yrotation Zrotation
												JOINT RightHandPinky3
												{
													OFFSET -3.014900 0.000000 0.000000
													CHANNELS 3 Xrotation Yrotation Zrotation
													JOINT RightHandPinky4
													{
														OFFSET -5.847786 0.000000 0.000000
														CHANNELS 3 Xrotation Yrotation Zrotation
														End Site
														{
															OFFSET 0.000000 0.000000 0.000000
														}
													}
												}
											}
										}
									}
								}
							}
						}
					}
				}
			}
		}
	}
	JOINT LeftUpLeg
	{
		OFFSET 13.026900 -6.336304 -1.092800
		CHANNELS 3 Xrotation Yrotation Zrotation
		JOINT LeftLeg
		{
			OFFSET 0.524474 -46.096886 9.782700
			CHANNELS 3 Xrotation Yrotation Zrotation
			JOINT LeftFoot
			{
				OFFSET -0.524474 -53.427422 -12.948200
				CHANNELS 3 Xrotation Yrotation Zrotation
				JOINT LeftToeBase
				{
					OFFSET 0.192200 -14.009700 16.364100
					CHANNELS 3 Xrotation Yrotation Zrotation
					JOINT LeftToe_End
					{
						OFFSET -1.784700 -0.561700 9.474800
						CHANNELS 3 Xrotation Yrotation Zrotation
						End Site
						{
							OFFSET 0.000000 0.000000 0.000000
						}
					}
				}
			}
		}
	}
	JOINT RightUpLeg
	{
		OFFSET -12.883000 -6.336304 -1.092800
		CHANNELS 3 Xrotation Yrotation Zrotation
		JOINT RightLeg
		{
			OFFSET -0.524587 -46.096825 9.782800
			CHANNELS 3 Xrotation Yrotation Zrotation
			JOINT RightFoot
			{
				OFFSET 0.524587 -53.427383 -12.948300
				CHANNELS 3 Xrotation Yrotation Zrotation
				JOINT RightToeBase
				{
					OFFSET -0.192200 -14.009700 16.364100
					CHANNELS 3 Xrotation Yrotation Zrotation
					JOINT RightToe_End
					{
						OFFSET 1.784700 -0.561700 9.474800
						CHANNELS 3 Xrotation Yrotation Zrotation
						End Site
						{
							OFFSET 0.000000 0.000000 0.000000
						}
					}
				}
			}
		}
	}
}
MOTION
Frames: 5
Frame Time: 0.016667
-1.145272 95.926758 0.541065 11.742471 -49.637956 11.853851 11.000841 2.884709 -2.598271 6.100712 5.566511 -4.284673 0.000000 0.000000 0.000000 -5.786920 6.328152 -3.046183 2.318696 9.363324 -0.265343 -4.146676 23.161950 -3.523376 -0.000001 0.000000 0.000001 -1.875345 -16.181703 -2.870489 0.000000 0.000000 0.000000 -10.644673 2.164713 -45.510595 -22.862385 -25.786254 -15.871715 2.491047 -2.511836 6.860509 18.457968 -9.513814 13.216574 -1.150185 11.255338 -8.400817 5.706545 8.483087 -0.820710 0.000002 -0.000001 0.000000 -1.232795 -5.771933 -0.192337 0.133953 -0.197650 -4.602105 0.055727 -0.448177 -7.568225 -0.000000 -0.000000 -0.000002 1.884757 4.663347 -4.597413 0.476693 -1.009822 -12.986432 0.628528 -1.346606 -16.554032 0.000003 0.000001 0.000001 3.024639 7.938935 -14.103475 -0.708004 -0.566239 -18.895763 -0.726377 -0.705038 -22.058446 -0.000006 -0.000000 -0.000000 2.010388 6.305950 -22.386570 -0.815348 -0.210784 -16.746471 -2.232649 0.018991 -34.673858 0.000001 -0.000002 0.000001 -5.074603 24.343689 1.482629 0.000000 0.000000 0.000000 6.642395 -34.733691 57.610508 -21.031968 44.833843 19.961631 -0.087309 35.608498 7.474340 55.149546 18.649557 -29.698264 -0.442534 -14.180578 7.313153 21.666979 -29.244490 9.142359 0.000000 -0.000001 -0.000001 5.673393 7.585011 36.844158 1.050469 3.824518 68.900264 0.499565 3.026041 62.196447 -0.000002 -0.000001 0.000001 -0.125711 1.886086 45.000773 -1.168990 3.204669 68.417657 -0.936402 1.813628 41.107555 0.000000 0.000000 -0.000002 -5.311990 1.216650 58.508814 -0.745221 1.667576 48.011295 -0.816486 1.840618 53.666541 0.000002 -0.000001 -0.000002 -7.756792 -9.376463 47.263997 -0.526033 1.541604 45.600522 -0.508175 0.803440 24.986620 -0.000003 0.000001 -0.000000 -66.338895 27.374051 41.603116 43.627116 -19.169544 3.300638 6.155720 0.696564 -10.402436 -0.953569 -6.111302 0.978250 0.000000 -0.000001 0.000000 -33.768325 0.305356 -25.532195 50.490749 2.246274 -6.583144 -23.895343 -2.614909 25.261383 0.528350 2.970032 1.471341 0.000000 0.000002 -0.000000 
-1.120789 95.689476 0.865840 17.399432 -51.308678 16.544535 6.627820 3.253018 -1.914987 4.905265 6.087656 -4.052458 0.000000 0.000000 0.000000 -6.993459 6.770105 -2.740915 -0.991443 3.774196 0.062745 -2.765975 16.503474 -2.144349 0.000000 0.000002 -0.000000 -2.019446 -12.678713 -1.080113 0.000000 0.000000 0.000000 -6.222599 2.408197 -48.336064 -21.610065 -26.352753 -14.989767 2.965866 -1.783770 8.412970 18.064694 -9.416801 14.872081 -0.773599 11.739612 -8.473105 5.789433 8.646705 -0.813678 -0.000003 0.000001 -0.000000 -1.184306 -5.275864 -1.333420 0.131707 -0.224505 -5.199122 0.049340 -0.418684 -6.975693 -0.000002 -0.000001 0.000001 1.542731 3.201545 -5.955568 0.477911 -1.005704 -12.916753 0.632438 -1.336361 -16.388368 -0.000001 0.000001 -0.000002 2.085924 6.252220 -15.478202 -0.700609 -0.534768 -18.124365 -0.709586 -0.665860 -21.171233 0.000002 -0.000001 -0.000000 1.342387 5.609884 -22.650045 -0.814040 -0.196003 -16.362348 -2.217425 0.041411 -33.895640 -0.000000 -0.000003 -0.000003 -5.292526 23.824659 2.533291 0.000000 0.000000 0.000000 6.218717 -35.596118 55.188113 -22.397626 43.628233 20.943868 3.828322 34.139235 9.201640 55.149543 18.649553 -29.698260 -0.442536 -14.180576 7.313154 21.666975 -29.244490 9.142357 0.000001 0.000001 0.000001 5.673391 7.585010 36.844158 1.050470 3.824523 68.900264 0.499569 3.026040 62.196454 -0.000001 0.000002 -0.000005 -0.125712 1.886086 45.000770 -1.168990 3.204668 68.417650 -0.936407 1.813628 41.107555 -0.000002 -0.000000 -0.000001 -5.311989 1.216648 58.508801 -0.745222 1.667576 48.011295 -0.816486 1.840617 53.666541 0.000000 0.000001 0.000002 -7.756799 -9.376459 47.263997 -0.526034 1.541604 45.600529 -0.508177 0.803437 24.986616 -0.000002 -0.000000 0.000001 -68.029497 26.410392 41.595271 44.260893 -18.120517 3.444816 5.155455 2.782101 -11.665260 -0.953569 -6.111300 0.978250 0.000000 -0.000001 -0.000000 -37.800517 2.060514 -24.907598 50.549393 2.527304 -6.586780 -23.383130 -1.831187 25.360766 0.528350 2.970029 1.471341 0.000000 0.000002 0.000000 
-1.362165 95.357834 1.542768 23.105714 -51.248917 21.720020 1.951144 3.251740 -1.064662 3.783555 5.915585 -3.917736 0.000000 0.000000 0.000000 -8.078004 6.563218 -2.613887 -5.256409 -4.314892 1.768454 -0.964760 7.189381 -0.581164 0.000000 0.000000 0.000000 -2.338701 -9.267081 0.477313 0.000000 0.000000 0.000000 0.012348 1.464322 -49.562247 -21.267379 -30.655719 -14.789839 4.369178 -3.947319 9.995083 17.604346 -9.261270 16.773923 -0.387780 12.245201 -8.536507 5.865860 8.783607 -0.820993 -0.000001 0.000000 -0.000003 -1.103387 -4.719079 -2.651495 0.129739 -0.245663 -5.669182 0.055152 -0.379046 -6.139132 -0.000001 -0.000003 0.000002 1.185361 1.599522 -7.313235 0.484438 -0.983411 -12.540483 0.638512 -1.307889 -15.878004 0.000002 -0.000000 0.000000 1.012830 4.393961 -16.937192 -0.690357 -0.487698 -16.975144 -0.687494 -0.610028 -19.919070 -0.000001 0.000000 0.000000 0.513813 4.787115 -22.957003 -0.812394 -0.176149 -15.846292 -2.210632 0.052161 -32.881152 0.000000 -0.000001 -0.000002 -5.306078 22.788504 3.827939 0.000000 0.000000 0.000000 7.662529 -36.585690 53.035510 -27.334629 45.566494 26.031931 8.948047 30.429302 10.709151 55.149539 18.649551 -29.698267 -0.442532 -14.180578 7.313155 21.666977 -29.244493 9.142358 -0.000001 -0.000000 -0.000000 5.673396 7.585010 36.844165 1.050469 3.824521 68.900264 0.499568 3.026042 62.196447 0.000000 -0.000003 0.000003 -0.125708 1.886086 45.000773 -1.168990 3.204672 68.417650 -0.936406 1.813629 41.107555 0.000001 0.000002 0.000002 -5.311986 1.216648 58.508807 -0.745222 1.667577 48.011295 -0.816491 1.840614 53.666545 0.000002 -0.000000 0.000001 -7.756795 -9.376463 47.264004 -0.526035 1.541599 45.600525 -0.508173 0.803437 24.986618 0.000001 -0.000000 -0.000000 -69.999330 25.951118 40.707531 44.950926 -17.475802 3.535026 4.178684 4.399922 -12.447834 -0.953569 -6.111299 0.978250 0.000000 -0.000000 -0.000000 -41.082778 3.881444 -24.945143 50.618464 2.290709 -6.633062 -23.355868 -1.997628 25.891427 0.528350 2.970029 1.471341 -0.000000 0.000000 0.000000 
-1.876713 95.073868 2.353536 27.435236 -49.818587 25.999018 -1.812387 2.824382 -0.358661 3.102659 5.088905 -3.978473 0.000000 0.000000 0.000000 -8.666745 5.787714 -2.761521 -8.158454 -13.179532 6.213845 0.797488 -2.094666 0.411620 -0.000000 -0.000000 -0.000000 -2.777915 -7.561333 3.202646 0.000000 0.000000 0.000000 6.336165 0.679716 -51.194283 -20.920417 -35.100906 -14.588135 5.409412 -8.008550 10.884742 17.109800 -9.079811 18.724419 0.002459 12.754359 -8.604146 5.938798 8.914610 -0.827744 -0.000001 -0.000001 0.000000 -0.983821 -4.156258 -4.002710 0.127625 -0.266901 -6.142135 0.060479 -0.336381 -5.241563 0.000003 0.000001 -0.000002 0.803372 -0.034182 -8.704981 0.492098 -0.956445 -12.087568 0.645732 -1.274405 -15.281404 -0.000002 0.000004 0.000000 -0.132061 2.515811 -18.482070 -0.680303 -0.436517 -15.731507 -0.665383 -0.549435 -18.575698 -0.000000 0.000000 0.000001 -0.362782 3.941767 -23.293204 -0.810857 -0.154957 -15.297264 -2.203419 0.063997 -31.807761 -0.000000 0.000003 0.000001 -5.506173 20.977700 6.822259 0.000000 0.000000 0.000000 8.426888 -38.300805 48.596386 -35.680058 50.798924 35.841199 12.703984 25.022427 12.320501 55.149543 18.649553 -29.698267 -0.442535 -14.180576 7.313154 21.666975 -29.244493 9.142360 -0.000000 -0.000001 -0.000000 5.673393 7.585012 36.844158 1.050469 3.824524 68.900264 0.499569 3.026040 62.196447 -0.000001 0.000001 -0.000001 -0.125709 1.886089 45.000770 -1.168990 3.204673 68.417650 -0.936397 1.813630 41.107555 -0.000002 0.000000 0.000002 -5.311989 1.216652 58.508807 -0.745220 1.667579 48.011295 -0.816488 1.840617 53.666541 0.000002 -0.000000 0.000001 -7.756794 -9.376459 47.263997 -0.526035 1.541596 45.600525 -0.508172 0.803437 24.986621 0.000000 0.000002 -0.000001 -71.711119 26.110273 39.210087 45.329309 -17.285165 3.549053 3.408680 5.381652 -12.793460 -0.953569 -6.111300 0.978250 0.000000 0.000001 -0.000000 -43.148518 5.481535 -25.631769 50.686062 1.706056 -6.678365 -23.757466 -2.885492 26.582272 0.528350 2.970029 1.471342 0.000000 0.000001 -0.000000 
-2.578064 94.929230 3.237859 30.374565 -47.778447 29.035370 -3.494876 1.917175 0.249910 3.307907 3.506666 -3.997014 0.000000 0.000000 0.000000 -8.328919 4.248530 -2.971354 -11.046993 -19.653108 9.678658 2.777025 -9.457416 3.013811 0.000001 -0.000001 -0.000000 -3.066421 -7.807664 4.730872 0.000000 0.000000 0.000000 10.311696 1.423225 -52.599444 -19.446798 -36.074156 -13.613613 5.926629 -9.868647 10.177417 16.622046 -8.910707 20.531555 0.386565 13.253235 -8.674191 6.018175 9.057454 -0.834917 0.000001 0.000001 0.000001 -0.832546 -3.639091 -5.242927 0.124574 -0.294101 -6.747930 0.064206 -0.299454 -4.466038 -0.000001 -0.000003 0.000003 0.384853 -1.589230 -10.165027 0.497065 -0.938591 -11.787949 0.650002 -1.250978 -14.857164 -0.000000 0.000001 -0.000001 -1.280120 0.766610 -20.099683 -0.672667 -0.393019 -14.676799 -0.647330 -0.496459 -17.414843 -0.000002 0.000001 -0.000001 -1.171365 3.173657 -23.633534 -0.809616 -0.136403 -14.814190 -2.197076 0.074985 -30.852320 -0.000001 0.000004 0.000001 -5.187630 18.961582 9.196352 0.000000 0.000000 0.000000 7.063273 -38.893542 43.103917 -47.779362 56.035821 50.040510 13.976201 20.174985 13.298322 55.149543 18.649557 -29.698267 -0.442534 -14.180578 7.313154 21.666977 -29.244493 9.142359 -0.000001 0.000001 0.000002 5.673394 7.585012 36.844165 1.050468 3.824523 68.900264 0.499566 3.026040 62.196454 0.000002 0.000003 -0.000001 -0.125711 1.886090 45.000773 -1.168990 3.204669 68.417650 -0.936396 1.813629 41.107555 -0.000002 0.000000 -0.000000 -5.311988 1.216651 58.508807 -0.745221 1.667577 48.011295 -0.816490 1.840616 53.666545 -0.000002 -0.000001 -0.000001 -7.756796 -9.376459 47.264004 -0.526033 1.541601 45.600525 -0.508178 0.803437 24.986618 0.000001 0.000000 -0.000000 -73.000352 26.572482 37.529878 45.383134 -17.390707 3.511145 2.789903 5.914347 -12.893908 -0.953569 -6.111302 0.978250 -0.000000 -0.000000 0.000000 -44.152385 6.617963 -26.597650 50.553772 1.027221 -6.676771 -24.338312 -4.105388 27.220046 0.528350 2.970026 1.471341 0.000000 -0.000001 -0.000000 
